<?xml version="1.0" encoding="UTF-8"?>
<svg xmlns="http://www.w3.org/2000/svg" xmlns:xlink="http://www.w3.org/1999/xlink" width="100pt" height="100pt" viewBox="0 0 100 100" version="1.1">
<g id="surface2604571">
<path style=" stroke:none;fill-rule:nonzero;fill:rgb(10.196078%,73.72549%,61.176471%);fill-opacity:1;" d="M 36 83.15625 C 36 84.9375 35.046875 86 33.695312 86 C 33.21875 86 32.6875 85.867188 32.125 85.585938 L 10.328125 74.546875 C 9.046875 73.898438 8 72.179688 8 70.734375 L 8 16.625 C 8 15.195312 8.757812 14.351562 9.84375 14.351562 C 10.226562 14.351562 10.65625 14.453125 11.101562 14.679688 L 11.867188 15.070312 L 11.875 15.070312 L 35.898438 27.234375 C 35.9375 27.257812 35.96875 27.296875 36 27.328125 Z M 61.171875 17.765625 L 62.640625 15.351562 C 63.164062 14.492188 64.125 14 65.101562 14 C 65.328125 14 65.5625 14.03125 65.789062 14.09375 C 65.960938 14.132812 66.140625 14.195312 66.328125 14.289062 L 91.664062 27.117188 C 91.671875 27.117188 91.671875 27.125 91.671875 27.125 L 91.695312 27.132812 C 91.710938 27.140625 91.710938 27.164062 91.726562 27.171875 C 91.851562 27.273438 91.90625 27.445312 91.820312 27.585938 L 66.585938 69.117188 L 64.007812 73.351562 L 47.289062 40.609375 Z M 40 61.210938 L 40 35.125 L 57.960938 70.3125 L 41.804688 62.132812 Z M 92 83.15625 C 92 84.828125 91.007812 85.78125 89.546875 85.78125 C 88.890625 85.78125 88.140625 85.59375 87.351562 85.195312 L 83.734375 83.359375 L 67.578125 75.179688 L 92 34.992188 Z M 92 83.15625 "/>
</g>
</svg>
