<?xml version="1.0" encoding="UTF-8"?>
<svg xmlns="http://www.w3.org/2000/svg" xmlns:xlink="http://www.w3.org/1999/xlink" width="96pt" height="96pt" viewBox="0 0 96 96" version="1.1">
<g id="surface2604419">
<path style=" stroke:none;fill-rule:nonzero;fill:rgb(10.196078%,73.72549%,61.176471%);fill-opacity:1;" d="M 20 12 C 15.589844 12 12 15.589844 12 20 L 12 76 C 12 80.410156 15.589844 84 20 84 L 76 84 C 80.410156 84 84 80.410156 84 76 L 84 20 C 84 15.589844 80.410156 12 76 12 Z M 20 20 L 76 20 L 76.007812 76 L 20 76 Z M 58.265625 28.453125 C 52.777344 28.453125 48.320312 32.914062 48.320312 38.398438 C 48.320312 39.425781 48.664062 40.113281 48.664062 40.796875 C 40.4375 40.457031 33.238281 36.34375 28.4375 30.515625 C 27.410156 31.886719 27.0625 33.597656 27.0625 35.3125 C 27.0625 38.742188 28.78125 41.492188 31.523438 43.890625 C 29.8125 43.546875 28.433594 43.199219 27.0625 42.515625 C 27.0625 47.316406 30.488281 51.089844 34.945312 52.117188 C 33.917969 52.460938 33.230469 52.460938 32.203125 52.460938 C 31.859375 52.460938 31.167969 52.117188 30.484375 52.117188 C 31.855469 55.890625 35.285156 58.96875 39.742188 58.96875 C 36.3125 61.367188 31.855469 63.085938 27.398438 63.085938 L 25 63.085938 C 29.457031 65.824219 34.601562 67.546875 40.085938 67.546875 C 58.257812 67.546875 68.203125 52.457031 68.203125 39.429688 L 68.203125 38.054688 C 69.917969 36.683594 71.628906 34.96875 73.007812 32.90625 C 70.953125 33.9375 69.234375 34.28125 67.179688 34.625 C 69.234375 33.257812 70.949219 31.539062 71.632812 29.140625 C 69.917969 30.167969 67.859375 31.195312 65.460938 31.539062 C 63.746094 29.484375 61.007812 28.453125 58.265625 28.453125 Z M 58.265625 28.453125 "/>
</g>
</svg>
