<?xml version="1.0" encoding="UTF-8"?>
<svg xmlns="http://www.w3.org/2000/svg" xmlns:xlink="http://www.w3.org/1999/xlink" width="96pt" height="96pt" viewBox="0 0 96 96" version="1.1">
<g id="surface2604678">
<path style=" stroke:none;fill-rule:nonzero;fill:rgb(10.196078%,73.72549%,61.176471%);fill-opacity:1;" d="M 87.203125 0 L 8.796875 0 C 4 0 0 4 0 8.796875 L 0 87.203125 C 0 92 4 96 8.796875 96 L 87.203125 96 C 92 96 96 92 96 87.203125 L 96 8.796875 C 96 4 92 0 87.203125 0 Z M 28 80 L 12 80 L 12 36 L 28 36 Z M 20 30.796875 C 15.203125 30.796875 12 27.59375 12 23.59375 C 12 19.203125 15.203125 16 20 16 C 24.796875 16 28 19.203125 28 23.203125 C 28 27.59375 24.796875 30.796875 20 30.796875 Z M 84 80 L 68 80 L 68 56 C 68 49.59375 63.59375 48 62.40625 48 C 61.203125 48 56 48.796875 56 56 C 56 56.796875 56 80 56 80 L 40 80 L 40 36 L 56 36 L 56 42.40625 C 58.40625 38.796875 62.40625 36 70 36 C 77.59375 36 84 42 84 56 Z M 84 80 "/>
</g>
</svg>
