<?xml version="1.0" encoding="UTF-8"?>
<svg xmlns="http://www.w3.org/2000/svg" xmlns:xlink="http://www.w3.org/1999/xlink" width="90pt" height="90pt" viewBox="0 0 90 90" version="1.1">
<g id="surface3734239">
<path style=" stroke:none;fill-rule:nonzero;fill:rgb(10.196078%,73.72549%,61.176471%);fill-opacity:1;" d="M 76.285156 10 C 75.714844 9.363281 74.902344 9 74.050781 9 L 15.949219 9 C 15.097656 9 14.285156 9.363281 13.714844 10 C 13.144531 10.636719 12.875 11.484375 12.96875 12.328125 L 19.574219 71.800781 C 19.707031 73.007812 20.5625 74.019531 21.730469 74.351562 L 44.171875 80.761719 C 44.441406 80.839844 44.722656 80.878906 44.996094 80.878906 C 45.273438 80.878906 45.550781 80.839844 45.820312 80.761719 L 68.261719 74.351562 C 69.433594 74.019531 70.285156 73.007812 70.417969 71.800781 L 77.027344 12.328125 C 77.125 11.484375 76.855469 10.636719 76.285156 10 Z M 61.546875 39.222656 L 60.210938 61.078125 L 45.097656 66.019531 L 29.980469 61.078125 L 29.410156 50.625 L 37.058594 50.625 L 37.25 55.378906 L 45.097656 58.039062 L 52.941406 55.378906 L 53.515625 46.828125 L 36.679688 46.828125 L 36.296875 39.226562 L 53.898438 39.226562 L 54.472656 31.621094 L 28.066406 31.621094 L 27.496094 24.019531 L 62.503906 24.019531 Z M 61.546875 39.222656 "/>
</g>
</svg>
