<?xml version="1.0" encoding="UTF-8"?>
<svg xmlns="http://www.w3.org/2000/svg" xmlns:xlink="http://www.w3.org/1999/xlink" width="52pt" height="52pt" viewBox="0 0 52 52" version="1.1">
<g id="surface3733484">
<path style=" stroke:none;fill-rule:nonzero;fill:rgb(10.196078%,73.72549%,61.176471%);fill-opacity:1;" d="M 25.984375 3.25 C 25.734375 3.25 25.492188 3.3125 25.273438 3.421875 L 15.523438 8.296875 C 15.367188 8.375 15.226562 8.476562 15.101562 8.601562 L 8.601562 15.101562 C 8.507812 15.195312 8.421875 15.296875 8.351562 15.414062 L 3.476562 23.539062 C 3.328125 23.789062 3.25 24.078125 3.25 24.375 C 3.25 24.40625 3.25 24.4375 3.25 24.46875 L 3.25 37.375 C 3.25 37.796875 3.414062 38.210938 3.710938 38.507812 C 4.023438 40.210938 4.460938 41.890625 5.664062 43.085938 C 7.523438 44.945312 10.109375 45.59375 13 45.421875 L 13 45.5 L 45.5 45.5 L 45.5 17.992188 C 45.507812 17.914062 45.507812 17.828125 45.5 17.75 L 45.5 11.375 L 45.476562 11.375 C 45.335938 9.140625 44.59375 7.164062 43.085938 5.664062 C 41.890625 4.460938 40.210938 4.023438 38.507812 3.710938 L 38.507812 3.703125 C 38.203125 3.414062 37.796875 3.25 37.375 3.25 L 26 3.25 C 25.992188 3.25 25.984375 3.25 25.984375 3.25 Z M 31.367188 6.5 L 37.078125 6.5 C 37.132812 6.515625 37.195312 6.523438 37.257812 6.523438 C 38.8125 6.640625 39.960938 7.132812 40.789062 7.960938 C 42.078125 9.25 42.546875 11.507812 42.023438 14.453125 L 31.914062 6.875 L 31.851562 6.820312 C 31.828125 6.804688 31.804688 6.789062 31.773438 6.773438 Z M 25.882812 6.75 L 28.9375 8.789062 L 26.203125 17 L 17.09375 26.109375 L 8.890625 27.46875 L 6.796875 24.328125 L 11.039062 17.257812 L 17.21875 11.085938 Z M 31.703125 10.78125 L 38.992188 16.25 L 29.875 16.25 Z M 30.023438 19.5 L 40.335938 19.5 C 38.929688 22.617188 36.765625 25.960938 33.914062 29.226562 Z M 27.03125 20.765625 L 31.203125 31.203125 L 20.765625 27.03125 Z M 42.25 23 L 42.25 39.953125 L 35.515625 33.21875 L 35.257812 32.578125 C 38.164062 29.453125 40.539062 26.195312 42.25 23 Z M 16.046875 29.578125 L 15.148438 38.546875 L 10.664062 30.476562 Z M 6.5 29.742188 L 6.734375 30.09375 L 13.414062 42.117188 C 10.992188 42.359375 9.085938 41.914062 7.960938 40.789062 L 7.953125 40.789062 C 7.125 39.960938 6.640625 38.820312 6.523438 37.257812 C 6.523438 37.1875 6.515625 37.125 6.5 37.0625 Z M 19.28125 29.945312 L 29.234375 33.921875 C 25.507812 37.164062 21.648438 39.5625 18.179688 40.90625 Z M 32.578125 35.257812 L 33.21875 35.515625 L 39.953125 42.25 L 23.007812 42.25 C 26.210938 40.539062 29.460938 38.164062 32.578125 35.257812 Z M 32.578125 35.257812 "/>
</g>
</svg>
