<?xml version="1.0" encoding="UTF-8"?>
<svg xmlns="http://www.w3.org/2000/svg" xmlns:xlink="http://www.w3.org/1999/xlink" width="100pt" height="100pt" viewBox="0 0 100 100" version="1.1">
<g id="surface3733769">
<path style=" stroke:none;fill-rule:nonzero;fill:rgb(10.196078%,73.72549%,61.176471%);fill-opacity:1;" d="M 10.929688 4 C 10.367188 4 9.832031 4.234375 9.453125 4.652344 C 9.074219 5.066406 8.886719 5.621094 8.9375 6.179688 L 15.976562 85.03125 C 16.050781 85.855469 16.621094 86.550781 17.417969 86.777344 L 49.4375 95.921875 C 49.796875 96.023438 50.175781 96.023438 50.535156 95.921875 L 82.585938 86.777344 C 83.382812 86.550781 83.953125 85.855469 84.027344 85.03125 L 91.0625 6.179688 C 91.113281 5.621094 90.925781 5.066406 90.546875 4.652344 C 90.167969 4.234375 89.632812 4 89.070312 4 Z M 13.117188 8 L 86.882812 8 L 80.167969 83.308594 L 49.988281 91.921875 L 19.839844 83.308594 Z M 38 20 C 36.894531 20 36 20.894531 36 22 L 36 59.257812 L 24.535156 56.082031 C 23.933594 55.914062 23.289062 56.039062 22.789062 56.417969 C 22.292969 56.792969 22 57.382812 22 58.007812 L 22 67.898438 C 22 68.796875 22.601562 69.582031 23.464844 69.824219 L 45.464844 75.925781 C 46.066406 76.09375 46.710938 75.96875 47.210938 75.589844 C 47.707031 75.214844 48 74.625 48 74 L 48 22 C 48 20.894531 47.105469 20 46 20 Z M 54 20 C 52.894531 20 52 20.894531 52 22 L 52 56 C 52 56.589844 52.257812 57.148438 52.710938 57.53125 C 53.164062 57.910156 53.757812 58.074219 54.339844 57.972656 L 65.835938 55.992188 L 65.597656 59.535156 L 53.46875 62.871094 C 52.601562 63.109375 52 63.898438 52 64.796875 L 52 74 C 52 74.625 52.289062 75.214844 52.789062 75.59375 C 53.285156 75.96875 53.929688 76.09375 54.53125 75.929688 L 74.53125 70.429688 C 75.339844 70.207031 75.921875 69.503906 75.992188 68.671875 L 78.101562 44.171875 C 78.152344 43.566406 77.925781 42.964844 77.484375 42.546875 C 77.042969 42.128906 76.433594 41.933594 75.828125 42.019531 L 64 43.695312 L 64 32 L 77.308594 32 C 78.347656 32 79.210938 31.207031 79.300781 30.171875 L 79.992188 22.171875 C 80.039062 21.613281 79.851562 21.0625 79.472656 20.648438 C 79.09375 20.234375 78.558594 20 78 20 Z M 40 24 L 44 24 L 44 71.371094 L 26 66.378906 L 26 60.636719 L 37.464844 63.816406 C 38.066406 63.984375 38.710938 63.859375 39.210938 63.480469 C 39.707031 63.105469 40 62.515625 40 61.890625 Z M 56 24 L 75.820312 24 L 75.472656 28 L 62 28 C 60.894531 28 60 28.894531 60 30 L 60 46 C 60 46.578125 60.25 47.128906 60.6875 47.511719 C 61.125 47.890625 61.707031 48.0625 62.28125 47.980469 L 73.902344 46.332031 L 72.125 66.941406 L 56 71.375 L 56 66.324219 L 68.03125 63.015625 C 68.851562 62.789062 69.4375 62.070312 69.496094 61.222656 L 69.996094 53.722656 C 70.039062 53.109375 69.796875 52.511719 69.339844 52.101562 C 68.882812 51.691406 68.265625 51.511719 67.660156 51.617188 L 56 53.625 Z M 56 24 "/>
</g>
</svg>
